# xmcd
#
# Track frame offsets:
#	150
#	12625
#	27275
#
# Disc length: 489 seconds
#
# Revision: 0
# Processed by: cddbd v1.5.1PL0 Copyright (c) Steve Scherf et al.
# Submitted via: dBpowerAMP V4.0
#
DISCID=1d01e703
DTITLE=Various Artist - Bingo Blues
DYEAR=2002
DGENRE=Country
TTITLE0=Bingo Blues - Miss Jeanie
TTITLE1=Dinner For One - 
TTITLE2=Heartaches - 
EXTD=Miss Jeanie - "Bingo Blues"
EXTT0=
EXTT1=
EXTT2=
PLAYORDER=
